<?xml version="1.0" encoding="utf-8"?>
<!-- Generator: Adobe Illustrator 19.0.0, SVG Export Plug-In . SVG Version: 6.00 Build 0)  -->
<svg version="1.1" id="Capa_1" xmlns="http://www.w3.org/2000/svg" xmlns:xlink="http://www.w3.org/1999/xlink" x="0px" y="0px"
	 viewBox="0 0 85 85" style="enable-background:new 0 0 85 85;" xml:space="preserve">
<path d="M42.5,0C19.1,0,0,19.1,0,42.5S19.1,85,42.5,85S85,65.9,85,42.5S65.9,0,42.5,0z M32.2,6.5c-3.6,4.1-6.4,10.3-8.2,17.8
	c-4.7-0.8-8.8-1.8-12.2-3.1C16.6,14.1,23.8,8.9,32.2,6.5z M38.1,5.3C39.1,5.2,40,5.1,41,5v20.6c-4.9-0.1-9.6-0.4-14-1
	C29.3,15.3,33.4,8.1,38.1,5.3z M41,28.6V41H24.9c0.1-4.7,0.6-9.2,1.4-13.4C30.9,28.2,35.9,28.6,41,28.6z M41,44v12.4
	c-5.1,0.1-10.1,0.4-14.7,1c-0.8-4.2-1.3-8.7-1.4-13.4H41z M41,59.4V80c-1,0-1.9-0.1-2.9-0.2c-4.8-2.8-8.8-10-11.1-19.4
	C31.4,59.8,36.1,59.4,41,59.4z M32.2,78.5c-8.4-2.4-15.5-7.6-20.4-14.6c3.4-1.3,7.5-2.4,12.2-3.1C25.7,68.3,28.6,74.4,32.2,78.5z
	 M52.8,78.5c3.6-4.1,6.4-10.3,8.2-17.8c4.7,0.8,8.8,1.8,12.2,3.1C68.4,70.9,61.2,76.1,52.8,78.5z M46.9,79.7
	C45.9,79.8,45,79.9,44,80V59.4c4.9,0.1,9.6,0.4,14,1C55.7,69.7,51.6,76.9,46.9,79.7z M44,56.4V44h16.1c-0.1,4.7-0.6,9.2-1.4,13.4
	C54.1,56.8,49.1,56.4,44,56.4z M44,41V28.6c5.1-0.1,10.1-0.4,14.7-1c0.8,4.2,1.3,8.7,1.4,13.4H44z M44,25.6V5c1,0,1.9,0.1,2.9,0.2
	c4.8,2.8,8.8,10,11.1,19.4C53.6,25.2,48.9,25.6,44,25.6z M52.8,6.5c8.4,2.4,15.5,7.6,20.4,14.6c-3.4,1.3-7.5,2.4-12.2,3.1
	C59.3,16.7,56.4,10.6,52.8,6.5z M10.1,23.6c3.6,1.5,8.1,2.7,13.2,3.5c-0.8,4.3-1.3,9-1.4,13.9H5C5.3,34.7,7.1,28.8,10.1,23.6z
	 M21.9,44c0.1,4.9,0.6,9.6,1.4,13.9c-5.1,0.8-9.6,2-13.2,3.5c-3-5.1-4.8-11-5.1-17.3H21.9z M74.9,61.4c-3.6-1.5-8.1-2.7-13.2-3.5
	c0.8-4.3,1.3-9,1.4-13.9H80C79.7,50.3,77.9,56.2,74.9,61.4z M63.1,41c-0.1-4.9-0.6-9.6-1.4-13.9c5.1-0.8,9.6-2,13.2-3.5
	c3,5.1,4.8,11,5.1,17.4H63.1z"/>
</svg>
