<?xml version="1.0" encoding="utf-8"?>
<!-- Generator: Adobe Illustrator 19.0.0, SVG Export Plug-In . SVG Version: 6.00 Build 0)  -->
<svg version="1.1" id="Capa_1" xmlns="http://www.w3.org/2000/svg" xmlns:xlink="http://www.w3.org/1999/xlink" x="0px" y="0px"
	 viewBox="-454 241.9 51 79.1" style="enable-background:new -454 241.9 51 79.1;" xml:space="preserve">
<style type="text/css">
	.st0{enable-background:new    ;}
</style>
<g class="st0">
	<path d="M-449.5,265c0,0.4,0.1,0.7,0.3,0.9l1,1c0.1,0.1,0.2,0.2,0.2,0.3s-0.1,0.2-0.2,0.2h-5.2c-0.1,0-0.2-0.1-0.2-0.2
		s0.2-0.2,0.2-0.3l1-1c0.2-0.2,0.3-0.5,0.3-0.9v-20.1c0-0.4-0.1-0.7-0.3-0.9l-1-1c-0.1-0.1-0.2-0.2-0.2-0.3s0.1-0.2,0.2-0.2h4.2
		c3.5,0,5.3,1.8,5.3,6.1c0,3.7-1.3,5.2-2.5,5.9c1.1,0.6,2.1,1.9,2.1,3.7v6.9c0,0.2,0.1,0.4,0.3,0.6l1.1,1.1c0.1,0.1,0.3,0.3,0.3,0.4
		s-0.2,0.1-0.3,0.1h-1.7c-1.5,0-2.1-1-2.1-2.1v-7.1c0-1.5-0.9-2.6-2.1-2.6h-0.6V265z M-449.5,253.9h0.5c1.6,0,2.3-1.3,2.3-5.3
		c0-3.4-0.7-4.5-2.3-4.5h-0.5V253.9z"/>
</g>
<g class="st0">
	<path d="M-435.5,261.9c0-0.2-0.1-0.3-0.3-0.3h-2.5c-0.1,0-0.2,0.1-0.2,0.2l-0.5,3.7c0,0.2,0,0.4,0.2,0.6l0.7,0.8
		c0.1,0.2,0.3,0.3,0.3,0.4s-0.1,0.2-0.2,0.2h-3.8c-0.1,0-0.2-0.1-0.2-0.2s0.1-0.2,0.2-0.3l0.9-0.9c0.2-0.2,0.2-0.5,0.3-0.8l3-22.3
		c0-0.2,0.1-0.3,0.3-0.3h1.2c0.2,0,0.3,0.2,0.3,0.4l3.2,22.3c0,0.3,0.1,0.7,0.4,0.9l1,0.9c0.1,0.1,0.2,0.2,0.2,0.3s-0.1,0.2-0.2,0.2
		h-4.8c-0.2,0-0.2-0.1-0.2-0.2s0.1-0.2,0.2-0.3l0.9-0.9c0.1-0.1,0.2-0.4,0.2-0.7L-435.5,261.9z M-436,259.8c0.1,0,0.2-0.1,0.1-0.2
		l-1.2-8.1h-0.1l-1.1,8.2c0,0.1,0,0.2,0.1,0.2H-436z"/>
</g>
<g class="st0">
	<path d="M-429,244.9c0-0.4-0.1-0.7-0.3-0.9l-1-1c-0.1-0.1-0.2-0.2-0.2-0.3s0.1-0.2,0.2-0.2h4.4c3.4,0,5.4,3.2,5.4,11.8
		c0,10.8-2,13.1-5.4,13.1h-4.4c-0.1,0-0.2-0.1-0.2-0.2s0.2-0.2,0.2-0.3l1-1c0.2-0.2,0.3-0.5,0.3-0.9V244.9z M-426.5,265.8h0.6
		c1.3,0,2.5-1.3,2.5-11.4c0-8.9-1.2-10.2-2.5-10.2h-0.6V265.8z"/>
</g>
<g class="st0">
	<path d="M-418.4,244.9c0-0.4-0.1-0.7-0.3-0.9l-1-1c-0.1-0.1-0.2-0.2-0.2-0.3s0.1-0.2,0.2-0.2h5.2c0.1,0,0.2,0.1,0.2,0.2
		s-0.2,0.2-0.2,0.3l-1,1c-0.2,0.2-0.3,0.5-0.3,0.9V265c0,0.4,0.1,0.7,0.3,0.9l1,1c0.1,0.1,0.2,0.2,0.2,0.3s-0.1,0.2-0.2,0.2h-5.2
		c-0.1,0-0.2-0.1-0.2-0.2s0.2-0.2,0.2-0.3l1-1c0.2-0.2,0.3-0.5,0.3-0.9V244.9z"/>
</g>
<g class="st0">
	<path d="M-404.8,254.3c0,6.3-0.4,13.1-4.5,13.1c-4,0-4.4-6.8-4.4-13.1c0-4.8,0.4-11.8,4.4-11.8
		C-405.3,242.5-404.8,249.5-404.8,254.3z M-411,254.3c0,8.6,0.7,11.4,1.7,11.4c1,0,1.7-2.8,1.7-11.4c0-7.4-0.7-10.2-1.7-10.2
		C-410.2,244.2-411,246.9-411,254.3z"/>
</g>
<g class="st0">
	<path d="M-452.2,271.3c0-0.4-0.1-0.7-0.3-0.9l-0.8-1c-0.1-0.1-0.2-0.2-0.2-0.3c0-0.1,0.1-0.2,0.2-0.2h4c0.2,0,0.3,0.2,0.4,0.6
		l3.1,14.3h0.1v-12.5c0-0.4-0.1-0.7-0.3-0.9l-0.9-1c-0.1-0.1-0.2-0.2-0.2-0.3c0-0.1,0.1-0.2,0.2-0.2h4.4c0.1,0,0.2,0.1,0.2,0.2
		c0,0.1-0.1,0.2-0.2,0.3l-0.8,1c-0.2,0.3-0.3,0.5-0.3,0.9v22.2c0,0.2-0.1,0.4-0.3,0.4h-1.4c-0.3,0-0.6-0.3-0.7-0.8l-3.9-18.1h-0.1
		v16.6c0,0.4,0.1,0.7,0.3,0.9l0.9,1c0.1,0.1,0.2,0.2,0.2,0.3c0,0.1-0.1,0.2-0.2,0.2h-4.4c-0.1,0-0.2-0.1-0.2-0.2
		c0-0.1,0.2-0.2,0.2-0.3l0.8-1c0.2-0.3,0.3-0.5,0.3-0.9V271.3z"/>
</g>
<g class="st0">
	<path d="M-433,280.7c0,6.3-0.4,13.1-4.5,13.1c-4,0-4.4-6.8-4.4-13.1c0-4.8,0.4-11.8,4.4-11.8C-433.5,268.9-433,275.9-433,280.7z
		 M-439.2,280.7c0,8.6,0.7,11.4,1.7,11.4c1,0,1.7-2.8,1.7-11.4c0-7.4-0.7-10.2-1.7-10.2C-438.4,270.6-439.2,273.4-439.2,280.7z"/>
</g>
<g class="st0">
	<path d="M-430.8,271.3c0-0.4-0.1-0.7-0.3-0.9l-1-1c-0.1-0.1-0.2-0.2-0.2-0.3s0.1-0.2,0.2-0.2h5c2.6,0,4.4,1.4,4.4,6.4
		c0,4.3-1.4,6.9-4.4,6.9h-1.1v9.2c0,0.4,0,0.7,0.3,0.9l1.2,1c0.1,0.1,0.2,0.2,0.2,0.3s-0.1,0.2-0.2,0.2h-5.5c-0.1,0-0.2-0.1-0.2-0.2
		s0.2-0.2,0.2-0.3l1-1c0.2-0.2,0.3-0.5,0.3-0.9V271.3z M-428.3,280.6h1c1.4,0,1.8-1.5,1.8-5.2c0-3.7-0.4-4.8-1.8-4.8h-1V280.6z"/>
</g>
<g class="st0">
	<path d="M-417.7,288.3c0-0.2-0.1-0.3-0.3-0.3h-2.5c-0.1,0-0.2,0.1-0.2,0.2l-0.5,3.7c0,0.2,0,0.4,0.2,0.6l0.7,0.8
		c0.1,0.2,0.3,0.3,0.3,0.4s-0.1,0.2-0.2,0.2h-3.8c-0.1,0-0.2-0.1-0.2-0.2s0.1-0.2,0.2-0.3l0.9-0.9c0.2-0.2,0.2-0.5,0.3-0.8l3-22.3
		c0-0.2,0.1-0.3,0.3-0.3h1.2c0.2,0,0.3,0.2,0.3,0.4l3.2,22.3c0,0.3,0.1,0.7,0.4,0.9l1,0.9c0.1,0.1,0.2,0.2,0.2,0.3s-0.1,0.2-0.2,0.2
		h-4.8c-0.2,0-0.2-0.1-0.2-0.2s0.1-0.2,0.2-0.3l0.9-0.9c0.1-0.1,0.2-0.4,0.2-0.7L-417.7,288.3z M-418.1,286.2c0.1,0,0.2-0.1,0.1-0.2
		l-1.2-8.1h-0.1l-1.1,8.2c0,0.1,0,0.2,0.1,0.2H-418.1z"/>
</g>
<g class="st0">
	<path d="M-410.6,271.3c0-0.4-0.1-0.7-0.3-0.9l-1-1c-0.1-0.1-0.2-0.2-0.2-0.3s0.1-0.2,0.2-0.2h5.2c0.1,0,0.2,0.1,0.2,0.2
		s-0.2,0.2-0.2,0.3l-1,1c-0.2,0.2-0.3,0.5-0.3,0.9v20.9h1.3c0.4,0,0.7-0.1,0.9-0.5l2.1-6.4c0.1-0.1,0.1-0.2,0.2-0.2
		c0.1,0,0.2,0.1,0.2,0.2v8.1c0,0.3-0.1,0.5-0.4,0.5h-8.1c-0.1,0-0.2-0.1-0.2-0.2s0.2-0.2,0.2-0.3l1-1c0.2-0.2,0.3-0.5,0.3-0.9V271.3
		z"/>
</g>
<g class="st0">
	<path d="M-451.2,318.6c0,0.8-0.3,1.7-1.2,1.7c-0.9,0-1.2-0.9-1.2-1.7c0-0.8,0.3-1.7,1.2-1.7C-451.5,316.9-451.2,317.8-451.2,318.6z
		"/>
</g>
<g class="st0">
	<path d="M-442.5,303.8c0,0.2-0.1,0.3-0.2,0.3c-0.2,0-0.2-0.2-0.3-0.4c-0.4-2.8-1.4-6.7-3.1-6.7c-1.5,0-1.7,3.2-1.7,10.2
		c0,10,0.7,11.4,2.2,11.4c1.8,0,2.5-6.1,2.5-6.4c0-0.2,0.1-0.3,0.3-0.3c0.2,0,0.2,0.1,0.2,0.3c0,4.9-0.7,8-3.7,8
		c-3.9,0-4.3-7.6-4.3-13.1c0-4.1,0.2-11.8,4.3-11.8c0.5,0,1.1,0.3,1.6,0.7c0.2,0.2,0.4,0.2,0.6,0.2s0.4-0.1,0.6-0.4
		c0.2-0.2,0.5-0.5,0.6-0.5c0.2,0,0.2,0.2,0.2,0.6V303.8z"/>
</g>
<g class="st0">
	<path d="M-432.6,307.1c0,6.3-0.4,13.1-4.5,13.1c-4,0-4.4-6.8-4.4-13.1c0-4.8,0.4-11.8,4.4-11.8C-433,295.3-432.6,302.3-432.6,307.1
		z M-438.7,307.2c0,8.6,0.7,11.4,1.7,11.4c1,0,1.7-2.8,1.7-11.4c0-7.4-0.7-10.2-1.7-10.2C-438,297-438.7,299.8-438.7,307.2z"/>
</g>
<g class="st0">
	<path d="M-428.3,295.3c0.3,0,0.4,0.2,0.5,0.6l2.2,14.4h0.1l2-14.4c0-0.3,0.1-0.6,0.4-0.6h4.2c0.1,0,0.2,0.1,0.2,0.2
		c0,0.1-0.1,0.2-0.2,0.3l-0.8,1c-0.2,0.3-0.3,0.5-0.3,0.9v20.1c0,0.4,0.1,0.7,0.3,0.9l0.8,1c0.1,0.1,0.2,0.2,0.2,0.3
		c0,0.1-0.1,0.2-0.2,0.2h-4.7c-0.2,0-0.2-0.1-0.2-0.2c0-0.1,0.1-0.2,0.2-0.4l0.7-0.9c0.2-0.3,0.2-0.6,0.2-1v-16.1h-0.1l-2.5,18.2
		c0,0.2-0.1,0.3-0.3,0.3h-0.7c-0.1,0-0.1-0.1-0.2-0.3l-2.7-18.2h-0.1v16.1c0,0.4,0,0.7,0.2,1l0.7,0.9c0.1,0.1,0.2,0.2,0.2,0.4
		c0,0.1-0.1,0.2-0.2,0.2h-4.1c-0.1,0-0.2-0.1-0.2-0.2c0-0.1,0.2-0.2,0.2-0.3l0.8-1c0.2-0.3,0.3-0.5,0.3-0.9v-20.1
		c0-0.4-0.1-0.7-0.3-0.9l-0.8-1c-0.1-0.1-0.2-0.2-0.2-0.3c0-0.1,0.1-0.2,0.2-0.2H-428.3z"/>
</g>
</svg>
