<?xml version="1.0" encoding="utf-8"?>
<!-- Generator: Adobe Illustrator 25.0.1, SVG Export Plug-In . SVG Version: 6.00 Build 0)  -->
<svg version="1.1" id="Capa_1" xmlns="http://www.w3.org/2000/svg" xmlns:xlink="http://www.w3.org/1999/xlink" x="0px" y="0px"
	 viewBox="0 0 99.94 38.49" style="enable-background:new 0 0 99.94 38.49;" xml:space="preserve">
<path d="M40.69,28.26c1.17,0.44,1.42-1.63-0.23-1.54c-0.65,0.12-1.22,0.49-1.75,1.03C39.28,27.73,39.88,27.8,40.69,28.26"/>
<path d="M35.68,25.21c0.77,1,2.05-0.61,0.61-1.43c-0.61-0.24-1.29-0.24-2.02-0.07C34.75,24.01,35.23,24.39,35.68,25.21"/>
<path d="M32.91,24.3c-0.66,0.01-1.28,0.28-1.89,0.72c0.56,0.09,1.14,0.25,1.86,0.84C33.97,26.49,34.55,24.5,32.91,24.3"/>
<path d="M34.41,27.42c-0.77,0.48-1.36,0.58-1.92,0.6c0.57,0.49,1.17,0.81,1.82,0.89C35.96,28.91,35.54,26.94,34.41,27.42"/>
<path d="M36.59,27.61c1.54,0.61,1.86-1.37,0.63-1.35c-0.88,0.16-1.47,0.03-2-0.17C35.57,26.76,36.01,27.28,36.59,27.61"/>
<path d="M27.7,20.84c0.58,0.36,0.89,0.89,0.6,1.79l-1.29,4.01c-0.17,0.95-0.19,1.91,0.85,2.91c1.32,0.47,1.7,0.96,0.74,1.47
	c-0.3,0-0.31,0.11,0.04,0.34c0.87,0.39,1.49,0.1,2.04-0.39c0.42-0.35,0.89-0.44,1.43-0.26c1.87,0.46,2.64,0.99,1.44,1.63
	c-0.29,0.03-0.34,0.12,0.15,0.31c1.82,0.39,1.92-1.64,4.11-0.81c0.53,0.22,0.78,0.49,0.41,0.88c-0.25,0.11-0.3,0.22,0.09,0.31
	c0.88,0.11,1.57-0.26,1.97-1.33c0.32-0.51,0.58-0.62,1.36-0.95c0.35-0.35,0.47-0.7,0.55-1.24c0.06-0.5-0.17-0.71-0.61-0.47
	c-3.57,2.08-7.45,1-11.99-0.77c-0.77-0.31-0.91-0.93-0.83-1.68l1.06-3.26c1.26-2.62,6.72-0.28,11.36,2.83
	c0.55,0.52,0.73-0.58,0.32-1.04l-1.15-0.92c-0.28-0.29-2.46-1.82-2.41-2.16c-0.11-1.11-0.58-1.47-1.08-1.65
	c-0.26-0.09-0.37-0.07-0.37,0.3l-0.08,0.79c-0.12,0.28-0.31,0.22-0.56,0.22c-3.17-0.25-2.53-2.89-4.61-2.54
	c-0.52,0.08-0.48,0.01,0.21,0.59c0.26,0.27,0.35,0.69-0.29,0.93c-0.32,0-0.58,0.06-0.81,0.16c-0.94,0.48-1.23-0.83-2.71-0.34
	C27.42,20.63,27.27,20.76,27.7,20.84"/>
<path d="M11.23,16.98c0.21,1.09,1.96,0.99,1.46-0.63c-0.29-0.61-0.88-1.08-1.54-1.47C11.51,15.81,11.05,16.78,11.23,16.98"/>
<path d="M10.14,15.28c-0.29-0.61-0.88-1.08-1.54-1.47c0.36,0.92-0.09,1.9,0.08,2.09C8.89,16.99,10.64,16.9,10.14,15.28"/>
<path d="M9.68,17.38c-0.24-0.08-1.2-0.08-1.97-0.77c0.11,1.02,0.6,1.68,1.11,2.11C10.07,19.43,10.8,17.82,9.68,17.38"/>
<path d="M11.91,20.67c1.18,0.83,2.07-0.69,0.99-1.25c-0.23-0.1-1.18-0.2-1.88-0.97C11.03,19.48,11.44,20.18,11.91,20.67"/>
<path d="M23.96,23.48c0.27,0.73,0.65,1.33,1.19,1.74c1.46,0.83,2-1.19,0.78-1.31C25.04,23.96,24.47,23.75,23.96,23.48"/>
<path d="M19.62,24.01c0.31,0.72,0.72,1.3,1.27,1.68c1.49,0.76,1.94-1.29,0.72-1.35C20.72,24.43,20.14,24.25,19.62,24.01"/>
<path d="M19.19,21.55c-0.66-0.09-1.37,0.16-2.04,0.51c0.95,0.19,1.51,1.12,1.76,1.08C19.91,23.56,20.79,22.01,19.19,21.55"/>
<path d="M25.11,21.81c0.62,0.41,1.24,1.01,1.86,1.83c0.39,0.32,0.93-0.17,0.69-0.67c-0.49-0.84-1.15-1.49-1.98-1.95
	C25.04,20.74,24.69,21.39,25.11,21.81"/>
<path d="M16.51,17.25c0.4,0.39,0.51,0.81-0.02,1.31c-1.45,1.45-2.1,3.21-2.27,5.17c0.02,1,0.02,1.69-0.69,1.82
	c-0.34,0.04-0.35,0.16-0.03,0.37c0.65,0.33,1.32,0.49,2.08,0.03c0.16-0.15,0.33-0.21,0.53-0.08l2.65,1.2
	c0.51,0.21,0.65,0.49,0.01,0.9c-0.24,0.08-0.26,0.16-0.05,0.23c0.82,0.35,1.57,0.24,2.25-0.32c0.17-0.16,0.4-0.17,0.64-0.14
	c1.74,0.05,3.3-0.09,4.62-0.48c0.79-0.61,0.53-1.69-0.3-1.39c-3.74,1.21-6.73,0.14-9.52-1.57c-0.45-0.15-0.55-0.67-0.41-1.45
	c0.38-1.28,0.89-2.4,1.59-3.27c0.14-0.23,0.32-0.32,0.47-0.3c1.18,0.16,1.88-0.04,1.89-0.78c-0.05-0.39-0.19-0.35-0.34-0.25
	c-1.5,0.24-1.87-1.58-3.04-1.17C16.33,17.14,16.31,17.19,16.51,17.25"/>
<path d="M21.47,22.9c1.46,0.46,2.51-0.28,3.14-2.24c0.68-3.22-2.57-3.9-3.68-2.68C19.87,19.03,20.08,21.86,21.47,22.9 M21.55,18.86
	c0.62-0.83,2.11-0.34,1.6,1.41c-0.37,1.34-0.95,1.64-1.69,1.08C21.09,20.3,21.17,19.49,21.55,18.86"/>
<path d="M25.28,17.97c0.42-0.07,0.81-0.29,1.18-0.67c0.17-0.35,0.1-0.63-0.22-0.86l-0.66-0.47c-0.29-0.16-0.55-0.06-0.79,0.32
	c-0.24,0.31-0.35,0.68-0.33,1.11C24.58,17.84,24.85,18.03,25.28,17.97"/>
<path d="M22.83,16.68c0.25,0.48,0.64,0.53,1.17,0.16c0.16-0.16,0.33-0.36,0.52-0.64c0.29-0.49,0.18-0.81-0.31-0.94l-0.82-0.28
	c-0.41-0.08-0.67,0.03-0.62,0.58L22.83,16.68z"/>
<path d="M22.29,16.76c0.11-0.21,0.12-0.36,0.13-0.61c0.01-0.13,0.01-0.29,0.02-0.46c0.02-0.57-0.18-0.78-0.6-0.62
	c-0.29,0.06-0.54,0.08-0.81,0.09c-0.34,0.05-0.56,0.13-0.37,0.93C20.88,16.77,21.72,17.83,22.29,16.76"/>
<path d="M4.13,15.1c-0.21,0.59-0.63,0.61-1.23,0.17c-0.28-0.38-0.37-0.23-0.33,0.29c0.07,0.84,0.42,1.46,1.25,1.7
	c0.27-0.01,0.51,0.09,0.63,0.47c0.24,0.46,0.56,0.91,1.01,1.33c0.56,0.45,0.2,0.65-0.58,0.73c-0.37-0.1-0.37,0.02-0.02,0.37
	c0.38,0.43,0.97,0.63,1.79,0.59c0.25-0.08,0.49-0.03,0.71,0.16l1.17,0.69c0.52,0.27,0.46,0.57-0.17,0.92
	c-0.31,0.09-0.4,0.2-0.02,0.37c0.76,0.46,1.47,0.45,2.1-0.27c0.13-0.19,0.32-0.25,0.59-0.16c0.93,0.27,1.82,0.43,2.59,0.2
	c0.52-0.23,0.5-0.93-0.16-0.97c-3.65-0.56-5.93-2.33-7.44-4.77c-0.37-0.65-0.3-1.27,0.07-1.86c0.65-0.95,1.53-1.62,2.57-2.12
	c0.74-0.39,1.38-0.35,1.92,0.1c2.1,1.9,3.02,3.82,3.69,5.74c0.1,1,1.01,0.96,1.15,0.06l-0.25-1.17c-0.09-0.42-0.06-0.65,0.04-0.8
	c0.87-1.16,0.83-2.01,0.17-2.64c-0.22-0.26-0.31-0.4-0.37-0.02c-0.41,1.16-0.84,1.16-1.29,0.37c-0.99-1.42-1.83-2.18-2.62-2.73
	c-0.37-0.21-0.48-0.43-0.4-0.65c-0.23-1.44-0.79-1.46-1.33-1.57c-0.53-0.03-0.42,0-0.28,0.29c0.27,0.81-0.12,1.35-1.06,1.66
	C6.32,12.22,4.97,13.33,4.13,15.1"/>
<path d="M2.6,8.09C2,9.54,3.17,11.77,5.46,12.35C7.4,12.59,8,10.08,6.7,8.23C5.26,6.22,3.45,6.56,2.6,8.09 M5.54,9.07
	c0.6,1.5,0.36,2.07-0.46,2c-0.86-0.33-1.34-1.06-1.54-2.06C3.6,7.92,4.93,7.51,5.54,9.07"/>
<path d="M5.48,6.12c0.15-0.31,0.25-0.67,0.28-1.09C5.79,4.6,5.6,4.45,5.35,4.35C4.94,4.19,4.53,4.19,4.12,4.29
	C3.82,4.4,3.73,4.68,3.8,5.11C3.95,6.33,4.68,7.13,5.48,6.12"/>
<path d="M1.82,5.8C2.84,7.52,4.1,7.15,3.64,5.12C3.69,3.91,0.99,4.81,1.82,5.8"/>
<path d="M1.63,5.97c-0.5-0.79-1.92,0.94-1.28,1.32C1.75,8.56,3.37,7.73,1.63,5.97"/>
<path d="M0.88,3.46c0.32,0.09,0.47,0.28,0.46,0.56c0.4,1.09,1.86,0.27,1.08-0.75c-0.11-0.15-0.1-0.35,0.04-0.61
	C2.86-0.03-1.91,1.86,0.88,3.46"/>
<path d="M60.39,30.15c-1.15,0.49-1.49-1.56,0.16-1.55c0.65,0.1,1.24,0.44,1.79,0.95C61.78,29.56,61.18,29.65,60.39,30.15"/>
<path d="M65.27,26.88c-0.72,1.04-2.08-0.52-0.67-1.41c0.6-0.27,1.28-0.29,2.01-0.15C66.14,25.64,65.68,26.04,65.27,26.88"/>
<path d="M67.99,25.86c0.66-0.01,1.29,0.23,1.92,0.64c-0.55,0.11-1.13,0.3-1.83,0.92C67.03,28.09,66.36,26.12,67.99,25.86"/>
<path d="M66.63,29.04c0.79,0.45,1.38,0.52,1.95,0.52c-0.54,0.51-1.13,0.86-1.78,0.97C65.14,30.59,65.48,28.6,66.63,29.04"/>
<path d="M64.46,29.32C62.95,30,62.55,28.03,63.77,28c0.89,0.12,1.47-0.04,2-0.25C65.44,28.42,65.02,28.97,64.46,29.32"/>
<path d="M73.04,22.17c-0.56,0.39-0.85,0.93-0.52,1.82l1.46,3.95c0.21,0.94,0.27,1.9-0.72,2.94c-1.29,0.52-1.66,1.03-0.67,1.51
	c0.3-0.01,0.31,0.09-0.02,0.34c-0.85,0.42-1.48,0.16-2.06-0.3c-0.43-0.33-0.91-0.4-1.44-0.2c-1.85,0.54-2.59,1.1-1.37,1.69
	c0.29,0.02,0.34,0.11-0.14,0.32c-1.8,0.47-1.99-1.55-4.14-0.63c-0.52,0.24-0.76,0.52-0.38,0.9c0.25,0.1,0.31,0.21-0.08,0.31
	c-0.87,0.15-1.57-0.2-2.02-1.24c-0.34-0.49-0.61-0.59-1.4-0.89c-0.36-0.33-0.5-0.68-0.6-1.22c-0.08-0.49,0.14-0.72,0.59-0.5
	c3.66,1.92,7.48,0.67,11.95-1.29c0.75-0.34,0.87-0.97,0.75-1.71l-1.2-3.21c-1.37-2.56-4.79-1.3-9.29,2.01
	c-0.53,0.55-0.76-0.55-0.36-1.02l1.1-0.97c0.27-0.3,0.44-0.62,0.37-0.95c0.06-1.11,0.51-1.5,1.01-1.7c0.25-0.1,0.36-0.09,0.38,0.28
	l0.11,0.78c0.14,0.28,0.32,0.21,0.57,0.19c3.15-0.39,2.4-3,4.5-2.73c0.52,0.06,0.48-0.01-0.18,0.59c-0.25,0.28-0.32,0.7,0.33,0.92
	c0.32-0.01,0.59,0.04,0.82,0.13c0.96,0.43,1.19-0.88,2.69-0.46C73.32,21.95,73.47,22.07,73.04,22.17"/>
<path d="M89.34,17.6c-0.17,1.1-1.92,1.08-1.48-0.56c0.26-0.62,0.83-1.12,1.47-1.53C89,16.44,89.5,17.4,89.34,17.6"/>
<path d="M90.35,15.86c0.26-0.62,0.83-1.12,1.47-1.53c-0.32,0.93,0.18,1.89,0.01,2.09C91.67,17.51,89.92,17.49,90.35,15.86"/>
<path d="M90.9,17.94c0.23-0.09,1.19-0.13,1.93-0.86c-0.07,1.02-0.52,1.7-1.02,2.16C90.6,20,89.8,18.42,90.9,17.94"/>
<path d="M88.82,21.32c-1.14,0.88-2.09-0.6-1.04-1.2c0.22-0.11,1.17-0.25,1.84-1.05C89.64,20.09,89.26,20.81,88.82,21.32"/>
<path d="M76.89,24.65c-0.24,0.74-0.6,1.36-1.11,1.79c-1.42,0.89-2.05-1.1-0.84-1.28C75.84,25.17,76.4,24.94,76.89,24.65"/>
<path d="M81.26,24.99c-0.28,0.73-0.66,1.33-1.2,1.73c-1.46,0.82-2-1.2-0.78-1.32C80.18,25.46,80.75,25.26,81.26,24.99"/>
<path d="M81.58,22.52c0.65-0.12,1.37,0.1,2.06,0.42c-0.94,0.23-1.46,1.18-1.71,1.15C80.94,24.55,80,23.04,81.58,22.52"/>
<path d="M75.68,23.03c-0.6,0.43-1.19,1.06-1.78,1.91c-0.37,0.33-0.94-0.13-0.72-0.64c0.46-0.86,1.09-1.54,1.89-2.03
	C75.7,21.96,76.08,22.59,75.68,23.03"/>
<path d="M84.07,18.1c-0.38,0.41-0.48,0.83,0.07,1.31c1.51,1.39,2.24,3.12,2.49,5.07c0.02,1,0.05,1.69,0.77,1.79
	c0.34,0.02,0.36,0.14,0.05,0.37c-0.63,0.36-1.3,0.55-2.07,0.11c-0.16-0.14-0.34-0.2-0.53-0.06l-2.59,1.32
	c-0.5,0.24-0.63,0.52,0.03,0.9c0.24,0.07,0.26,0.15,0.06,0.23c-0.8,0.38-1.56,0.31-2.26-0.22c-0.18-0.15-0.4-0.15-0.65-0.12
	c-1.73,0.13-3.3,0.06-4.64-0.29c-0.82-0.57-0.61-1.67,0.23-1.41c3.79,1.05,6.73-0.15,9.45-1.98c0.44-0.17,0.52-0.7,0.35-1.47
	c-0.44-1.27-0.99-2.36-1.73-3.2c-0.15-0.22-0.33-0.3-0.48-0.28c-1.17,0.22-1.89,0.04-1.92-0.7c0.03-0.4,0.17-0.36,0.33-0.26
	c1.51,0.18,1.8-1.66,2.99-1.3C84.25,17.98,84.27,18.04,84.07,18.1"/>
<path d="M79.69,19.02c-1.16-1.16-4.38-0.34-3.56,2.84c0.71,1.93,1.79,2.63,3.23,2.1C80.71,22.86,80.79,20.02,79.69,19.02
	 M79.3,22.41c-0.72,0.59-1.31,0.32-1.74-1.01c-0.59-1.73,0.89-2.27,1.54-1.48C79.51,20.55,79.62,21.35,79.3,22.41"/>
<path d="M75.34,19.2c-0.42-0.05-0.82-0.26-1.21-0.62c-0.18-0.34-0.13-0.63,0.18-0.86l0.64-0.5c0.28-0.17,0.55-0.08,0.81,0.28
	c0.26,0.3,0.38,0.67,0.37,1.09C76.04,19.04,75.78,19.25,75.34,19.2"/>
<path d="M77.74,17.81c-0.23,0.49-0.61,0.56-1.16,0.21c-0.17-0.16-0.34-0.35-0.55-0.62c-0.31-0.48-0.21-0.8,0.27-0.95l0.81-0.32
	c0.4-0.1,0.67,0,0.64,0.56L77.74,17.81z"/>
<path d="M78.27,17.86c-0.12-0.21-0.14-0.36-0.16-0.6c-0.01-0.13-0.02-0.29-0.04-0.47c-0.04-0.57,0.15-0.79,0.58-0.64
	c0.29,0.05,0.54,0.06,0.82,0.06c0.34,0.03,0.57,0.11,0.41,0.91C79.69,17.81,78.89,18.9,78.27,17.86"/>
<path d="M96.35,15.42c0.23,0.58,0.66,0.59,1.24,0.12c0.26-0.39,0.36-0.24,0.35,0.28c-0.04,0.84-0.36,1.48-1.17,1.75
	c-0.28,0.01-0.51,0.12-0.61,0.5c-0.22,0.47-0.52,0.93-0.96,1.37c-0.54,0.47-0.17,0.65,0.61,0.7c0.36-0.12,0.37,0,0.04,0.37
	c-0.36,0.45-0.94,0.67-1.76,0.67c-0.26-0.07-0.49-0.01-0.7,0.19l-1.14,0.74c-0.51,0.29-0.44,0.59,0.21,0.91
	c0.32,0.07,0.41,0.18,0.04,0.37c-0.74,0.5-1.45,0.51-2.11-0.18c-0.14-0.19-0.33-0.23-0.59-0.13c-0.91,0.31-1.8,0.51-2.58,0.32
	c-0.53-0.21-0.54-0.91,0.12-0.98c3.62-0.72,5.82-2.58,7.23-5.09c0.34-0.67,0.24-1.28-0.15-1.86c-0.69-0.92-1.6-1.56-2.66-2.01
	c-0.76-0.36-1.39-0.29-1.91,0.18c-2.02,1.98-2.85,3.94-3.44,5.89c-0.05,1-0.97,1-1.15,0.11l0.2-1.18c0.07-0.43,0.04-0.65-0.07-0.8
	c-0.92-1.12-0.91-1.97-0.28-2.63c0.21-0.27,0.29-0.41,0.36-0.04c0.46,1.14,0.89,1.12,1.3,0.32c0.93-1.46,1.73-2.26,2.5-2.84
	c0.36-0.23,0.46-0.45,0.38-0.67c0.16-1.45,0.72-1.5,1.26-1.63c0.52-0.05,0.42-0.02,0.29,0.28c-0.23,0.83,0.18,1.35,1.13,1.61
	C94.03,12.64,95.43,13.68,96.35,15.42"/>
<path d="M93.48,8.67c-1.22,1.91-0.51,4.38,1.42,4.06c2.26-0.67,3.33-2.96,2.67-4.38C96.66,6.85,94.83,6.6,93.48,8.67 M96.68,9.31
	c-0.16,1-0.61,1.75-1.45,2.12c-0.82,0.1-1.08-0.45-0.55-1.98C95.22,7.87,96.57,8.22,96.68,9.31"/>
<path d="M94.61,6.51c-0.16-0.3-0.28-0.66-0.33-1.08C94.23,5,94.42,4.84,94.66,4.73c0.41-0.18,0.82-0.2,1.23-0.11
	c0.3,0.09,0.4,0.37,0.36,0.81C96.15,6.65,95.45,7.47,94.61,6.51"/>
<path d="M98.25,6.03c-0.95,1.76-2.22,1.45-1.85-0.6C96.31,4.22,99.04,5,98.25,6.03"/>
<path d="M98.45,6.18c0.47-0.81,1.96,0.86,1.33,1.26C98.44,8.78,96.78,8.02,98.45,6.18"/>
<path d="M99.09,3.65c-0.32,0.1-0.46,0.3-0.44,0.58c-0.36,1.11-1.85,0.35-1.11-0.71c0.1-0.15,0.09-0.35-0.07-0.61
	C96.96,0.25,101.81,1.93,99.09,3.65"/>
<path d="M53.2,28.13c0.62-0.66,1.16-0.91,1.69-1.07c-0.65-0.35-1.29-0.52-1.93-0.45C51.4,27.03,52.24,28.89,53.2,28.13"/>
<path d="M52.55,31.01c0.59-0.25,1.09-0.54,1.5-1.15c-0.54,0.05-1.13,0.01-1.97-0.26C50.89,29.42,50.99,31.42,52.55,31.01"/>
<path d="M50.72,27.77c0.39-0.84,0.84-1.25,1.32-1.58c-0.77-0.1-1.47-0.05-2.08,0.24C48.54,27.35,50.03,28.81,50.72,27.77"/>
<path d="M53.85,25.44c0.83-0.4,1.44-0.44,2.02-0.39c-0.53-0.57-1.11-0.96-1.76-1.12C52.42,23.74,52.65,25.81,53.85,25.44"/>
<path d="M48.92,25.9c0.39-0.84,0.84-1.25,1.32-1.58c-0.77-0.1-1.47-0.05-2.08,0.24C46.74,25.48,48.23,26.94,48.92,25.9"/>
<path d="M46.63,30.26c0.39-0.84,0.84-1.25,1.32-1.58c-0.77-0.1-1.47-0.05-2.08,0.24C44.45,29.84,45.93,31.3,46.63,30.26"/>
<path d="M45.92,34.38c0.12-0.91,0.41-1.43,0.76-1.87c-0.72,0.11-1.35,0.35-1.82,0.79C43.83,34.57,45.58,35.57,45.92,34.38"/>
<path d="M49.62,30.65c0.29-0.59,0.47-1.14,0.38-1.87c-0.38,0.4-0.84,0.77-1.65,1.13C47.34,30.58,48.71,32.01,49.62,30.65"/>
<path d="M60.26,24.16c-1.17-1.03-1.95,0.06-2.62-0.75c-0.23-0.28-0.64-0.36-0.85-0.66c-0.22-0.32-0.07-0.64,0.27-0.78
	c0.86-0.26,0.87-0.18,0.42-0.46c-1.78-1.15-2.23,1.53-5.24,0.52c-0.23-0.09-0.42-0.11-0.43-0.42l0.24-0.76
	c0.14-0.34,0.05-0.4-0.22-0.42c-0.54-0.03-1.11,0.12-1.65,1.1c-0.09,0.33-0.37,0.54-0.75,0.7c-0.6,0.25-1.3,0.34-1.91,0.62
	c-2.21,1.02-3.25,3.87-4.15,5.94c-0.54,1.25-1.05,2.41-1.29,3.75c-0.26,1.46-0.34,2.95-0.37,4.44c0.03,0.68,0.17,1.15,0.87,1.3
	l4.19,0.19c0.69-0.02,1.11-0.3,1.13-0.97c0.23-2.11,0.89-3.19,1.98-3.26c0.96-0.2,2.09-0.41,3.33-0.64c0.53-0.08,0.78,0.04,0.9,0.24
	c0.65,0.4,1.22,0.53,1.67,0.28c0.25-0.16,0.43-0.31,0.15-0.39c-0.48-0.2-0.43-0.77,0.08-1.36c2.35-1.32,3.16-2.48,2.87-4.45
	c0.01-0.08,0-0.15-0.02-0.21c0,0-0.16-1.92-0.16-1.92c-0.06-0.69,0.75-1.26,1.34-1.35C60.49,24.54,60.41,24.37,60.26,24.16
	 M56.13,30.44c-0.25,0.22-0.53,0.42-0.82,0.59c-1.58,0.93-3.67,1.57-5.5,1.6c-1.17,0.02-2,0.52-2.47,1.52l-0.85,2.17
	c-0.11,0.5-0.37,0.74-0.77,0.74l-2.03-0.13c-0.41-0.02-0.55-0.23-0.52-0.56c0.02-1.75,0.23-3.45,0.73-5.06
	c0.03-0.07,0.05-0.14,0.07-0.21c0.15-0.63,0.48-1.27,0.72-1.87c0.26-0.66,0.54-1.31,0.82-1.96c0.43-0.98,0.82-2.09,1.62-2.84
	c0.98-0.9,2.4-1.12,3.68-1.18c1.48-0.07,3.07-0.2,4.49,0.31c1.07,0.39,1.79,1.21,1.84,2.37c0.04,0.96,0.27,1.98,0.02,2.93
	C57,29.49,56.61,30.02,56.13,30.44"/>
</svg>
